<?xml version="1.0" encoding="utf-8"?>
<!-- Generator: Adobe Illustrator 16.0.0, SVG Export Plug-In . SVG Version: 6.00 Build 0)  -->
<!DOCTYPE svg PUBLIC "-//W3C//DTD SVG 1.1//EN" "http://www.w3.org/Graphics/SVG/1.1/DTD/svg11.dtd">
<svg version="1.1" id="图层_1" xmlns="http://www.w3.org/2000/svg" xmlns:xlink="http://www.w3.org/1999/xlink" x="0px" y="0px"
	 width="660px" height="246.902px" viewBox="0 0 660 246.902" enable-background="new 0 0 660 246.902" xml:space="preserve">
<g>
	<g>
		<defs>
			<rect id="SVGID_1_" x="-91" y="-141.276" width="841.89" height="595.276"/>
		</defs>
		<clipPath id="SVGID_2_">
			<use xlink:href="#SVGID_1_"  overflow="visible"/>
		</clipPath>
	</g>
	<g>
		<defs>
			<rect id="SVGID_3_" x="-91" y="-141.276" width="841.89" height="595.276"/>
		</defs>
		<clipPath id="SVGID_4_">
			<use xlink:href="#SVGID_3_"  overflow="visible"/>
		</clipPath>
	</g>
	<g>
		<defs>
			<rect id="SVGID_5_" x="-91" y="-141.276" width="841.89" height="595.276"/>
		</defs>
		<clipPath id="SVGID_6_">
			<use xlink:href="#SVGID_5_"  overflow="visible"/>
		</clipPath>
	</g>
	<g>
		<defs>
			<rect id="SVGID_7_" x="-91" y="-141.276" width="841.89" height="595.276"/>
		</defs>
		<clipPath id="SVGID_8_">
			<use xlink:href="#SVGID_7_"  overflow="visible"/>
		</clipPath>
	</g>
	<g>
		<defs>
			<rect id="SVGID_9_" x="-91" y="-141.276" width="841.89" height="595.276"/>
		</defs>
		<clipPath id="SVGID_10_">
			<use xlink:href="#SVGID_9_"  overflow="visible"/>
		</clipPath>
	</g>
	<g>
		<defs>
			<rect id="SVGID_11_" x="-91" y="-141.276" width="841.89" height="595.276"/>
		</defs>
		<clipPath id="SVGID_12_">
			<use xlink:href="#SVGID_11_"  overflow="visible"/>
		</clipPath>
	</g>
	<g>
		<defs>
			<rect id="SVGID_13_" x="-91" y="-141.276" width="841.89" height="595.276"/>
		</defs>
		<clipPath id="SVGID_14_">
			<use xlink:href="#SVGID_13_"  overflow="visible"/>
		</clipPath>
	</g>
	<g>
		<defs>
			<rect id="SVGID_15_" x="-91" y="-141.276" width="841.89" height="595.276"/>
		</defs>
		<clipPath id="SVGID_16_">
			<use xlink:href="#SVGID_15_"  overflow="visible"/>
		</clipPath>
	</g>
	<g>
		<defs>
			<rect id="SVGID_17_" x="-91" y="-141.276" width="841.89" height="595.276"/>
		</defs>
		<clipPath id="SVGID_18_">
			<use xlink:href="#SVGID_17_"  overflow="visible"/>
		</clipPath>
	</g>
	<g>
		<defs>
			<rect id="SVGID_19_" x="-91" y="-141.276" width="841.89" height="595.276"/>
		</defs>
		<clipPath id="SVGID_20_">
			<use xlink:href="#SVGID_19_"  overflow="visible"/>
		</clipPath>
	</g>
	<g>
		<defs>
			<rect id="SVGID_21_" x="-91" y="-141.276" width="841.89" height="595.276"/>
		</defs>
		<clipPath id="SVGID_22_">
			<use xlink:href="#SVGID_21_"  overflow="visible"/>
		</clipPath>
	</g>
	<g>
		<defs>
			<rect id="SVGID_23_" x="-91" y="-141.276" width="841.89" height="595.276"/>
		</defs>
		<clipPath id="SVGID_24_">
			<use xlink:href="#SVGID_23_"  overflow="visible"/>
		</clipPath>
	</g>
	<g>
		<defs>
			<rect id="SVGID_25_" x="-91" y="-141.276" width="841.89" height="595.276"/>
		</defs>
		<clipPath id="SVGID_26_">
			<use xlink:href="#SVGID_25_"  overflow="visible"/>
		</clipPath>
		<path clip-path="url(#SVGID_26_)" fill="#E13129" d="M342.919,78.828c0,0,224.692,9.723,317.819,168.317H532.534
			c0,0-53.62-119.96-214.021-151.81L342.919,78.828z"/>
	</g>
	<g>
		<defs>
			<rect id="SVGID_27_" x="-91" y="-141.276" width="841.89" height="595.276"/>
		</defs>
		<clipPath id="SVGID_28_">
			<use xlink:href="#SVGID_27_"  overflow="visible"/>
		</clipPath>
		<path clip-path="url(#SVGID_28_)" fill="#E13129" d="M141.62,247.399H0.096c0,0,166.485-253.281,568.52-245.051
			C568.615,2.348,301.767-1.881,141.62,247.399"/>
	</g>
	<g>
		<defs>
			<rect id="SVGID_29_" x="-91" y="-141.276" width="841.89" height="595.276"/>
		</defs>
		<clipPath id="SVGID_30_">
			<use xlink:href="#SVGID_29_"  overflow="visible"/>
		</clipPath>
		<path clip-path="url(#SVGID_30_)" fill="#E13129" d="M44.225,70.845c0,0,91.389-21.876,169.278-12.136l-35.079,17.372
			C178.424,76.081,68.439,68.281,44.225,70.845"/>
	</g>
	<g>
		<defs>
			<rect id="SVGID_31_" x="-91" y="-141.276" width="841.89" height="595.276"/>
		</defs>
		<clipPath id="SVGID_32_">
			<use xlink:href="#SVGID_31_"  overflow="visible"/>
		</clipPath>
		<polygon clip-path="url(#SVGID_32_)" fill="#000001" points="281.446,245.516 254.302,245.516 254.302,211.456 229.517,211.456 
			229.517,245.516 201.019,245.516 201.019,158.308 229.517,158.308 229.517,187.033 254.302,187.033 254.302,158.308 
			281.446,158.308 		"/>
	</g>
	<g>
		<defs>
			<rect id="SVGID_33_" x="-91" y="-141.276" width="841.89" height="595.276"/>
		</defs>
		<clipPath id="SVGID_34_">
			<use xlink:href="#SVGID_33_"  overflow="visible"/>
		</clipPath>
		<path clip-path="url(#SVGID_34_)" fill="#000001" d="M362.83,166.94c-5.444-5.75-12.046-8.642-19.838-8.642h-47.331v87.233h28.659
			V219.3l16.661-1.646c9.176-0.932,16.521-4.047,22.014-9.348c5.509-5.282,8.229-12.159,8.182-20.593
			C371.054,179.638,368.29,172.727,362.83,166.94 M324.155,197.526v-16.867h13.519c2.166,0,3.832,0.858,5.037,2.578
			c1.209,1.684,1.826,3.706,1.826,6.053c0,2.238-0.583,4.119-1.7,5.604c-1.185,1.754-2.827,2.632-4.901,2.632H324.155z"/>
	</g>
	<g>
		<defs>
			<rect id="SVGID_35_" x="-91" y="-141.276" width="841.89" height="595.276"/>
		</defs>
		<clipPath id="SVGID_36_">
			<use xlink:href="#SVGID_35_"  overflow="visible"/>
		</clipPath>
		<polygon clip-path="url(#SVGID_36_)" fill="#000001" points="471.545,245.516 447.7,245.516 447.7,203.49 433.623,245.516 
			415.543,245.516 401.875,203.49 401.875,245.516 377.918,245.516 377.918,158.308 409.238,158.308 424.539,211.707 
			439.918,158.308 471.545,158.308 		"/>
	</g>
</g>
</svg>
